<svg id="visual" viewBox="0 0 900 600" width="900" height="600" xmlns="http://www.w3.org/2000/svg" xmlns:xlink="http://www.w3.org/1999/xlink" version="1.1"><g fill="none" stroke="#1d2598" stroke-width="4"><circle r="41" cx="348" cy="580"></circle><circle r="17" cx="181" cy="300"></circle><circle r="34" cx="647" cy="157"></circle><circle r="21" cx="125" cy="138"></circle><circle r="25" cx="446" cy="326"></circle><circle r="23" cx="174" cy="459"></circle><circle r="38" cx="653" cy="547"></circle><circle r="24" cx="856" cy="246"></circle><circle r="36" cx="314" cy="303"></circle><circle r="22" cx="347" cy="33"></circle><circle r="33" cx="741" cy="596"></circle><circle r="19" cx="612" cy="324"></circle><circle r="23" cx="714" cy="25"></circle><circle r="16" cx="770" cy="281"></circle><circle r="32" cx="526" cy="202"></circle><circle r="38" cx="375" cy="399"></circle><circle r="23" cx="811" cy="106"></circle><circle r="35" cx="206" cy="178"></circle><circle r="37" cx="56" cy="58"></circle><circle r="34" cx="857" cy="523"></circle><circle r="31" cx="695" cy="393"></circle><circle r="22" cx="382" cy="487"></circle><circle r="27" cx="83" cy="240"></circle><circle r="18" cx="552" cy="544"></circle><circle r="27" cx="437" cy="596"></circle><circle r="16" cx="43" cy="519"></circle><circle r="17" cx="256" cy="14"></circle><circle r="38" cx="366" cy="120"></circle><circle r="37" cx="28" cy="147"></circle><circle r="16" cx="488" cy="476"></circle><circle r="16" cx="632" cy="461"></circle><circle r="33" cx="897" cy="148"></circle><circle r="38" cx="182" cy="598"></circle><circle r="20" cx="836" cy="402"></circle><circle r="28" cx="521" cy="25"></circle><circle r="20" cx="292" cy="169"></circle></g></svg>